<?xml version="1.0" encoding="utf-8"?>
<!-- Svg Vector Icons : http://www.onlinewebfonts.com/icon -->
<!DOCTYPE svg PUBLIC "-//W3C//DTD SVG 1.1//EN" "http://www.w3.org/Graphics/SVG/1.1/DTD/svg11.dtd">
<svg version="1.1" xmlns="http://www.w3.org/2000/svg" xmlns:xlink="http://www.w3.org/1999/xlink" x="0px" y="0px" viewBox="0 0 256 256" enable-background="new 0 0 256 256" xml:space="preserve">
<metadata> Svg Vector Icons : http://www.onlinewebfonts.com/icon </metadata>
<g><g><g><path fill="#000000" d="M161.2,10.7c-6.8,1.5-12.8,4.8-17.9,10c-11,11.1-13.6,25.7-7,40.1l1.6,3.6l-1.8,0.3c-3.6,0.6-9.4,2.8-13.1,5.1c-9.2,5.7-17.4,17.2-17.5,24.5c0,2.4,0.1,2.8,1.9,4.5c2.6,2.6,4.8,3,7.9,1.5c2-1,2.5-1.6,3.3-3.7c2.4-6.4,3.8-8.9,6.7-11.7c5-5,9.3-6.5,18.7-6.5h5.9l2.8,2.6c1.5,1.5,3.9,3.2,5.2,3.9l2.3,1.3v28.7c0,27.1,0.1,28.8,0.9,30.5c1.2,2.3,3.6,3.6,6.3,3.6c2.6,0,4.3-1,5.7-3.2c0.9-1.5,1-2.7,1-30.6V86l2.1-0.9c1.2-0.5,3.5-2.2,5.2-3.9l3.1-2.9l7.4,0.2c5.9,0.2,7.9,0.5,10.1,1.3c5.4,2.1,10.3,7,12.6,12.6c1.1,2.7,1.1,3.1,1.3,27.2c0.1,23.8,0.1,24.5-0.9,26.1c-1.3,2.1-3,2.7-6.9,2.4c-2.5-0.2-3.4-0.5-4.5-1.5l-1.3-1.3l-0.3-17.6c-0.2-15.7-0.3-17.8-1.1-19c-2-3.1-5.5-3.9-8.8-2.2c-4.4,2.2-4-3-4,62.9c0,35.8-0.2,58.7-0.5,59.5c-0.7,2-2.7,3-6.2,2.9c-3.3,0-5.9-1-6.6-2.5c-0.3-0.5-0.5-15.1-0.7-32.5l-0.3-31.6l-1.5-1.5c-1.7-1.8-4.3-2.7-6.4-2.3c-1.8,0.3-4.2,2-5,3.4c-0.4,0.9-0.6,8.7-0.8,32.7c-0.3,31.3-0.3,31.6-1.3,32.6c-2.4,2.5-8.4,2.1-11-0.5l-1.4-1.5l-0.1-56.8c-0.1-31.2-0.2-58-0.3-59.4c-0.1-2-0.5-2.9-1.6-4.1c-3.4-3.6-9.3-2.7-11.3,1.6c-0.8,1.9-0.9,3.5-0.9,18.5v16.4l-2.7,2.9c-2.6,2.8-2.7,2.9-2.7,5.6c0,2.3,0.2,3,1.5,4.5c0.9,0.9,2,1.8,2.7,2l1.2,0.3l0.1,34.9l0.1,34.8l1.3,2.9c1.7,3.7,6.6,8.8,10.3,10.8c4,2.1,8.5,3.2,11.7,2.8c2.9-0.4,7.2-2.2,9.7-4l1.7-1.3l2.3,1.5c7,4.5,14.2,5.1,20.8,1.7c3.4-1.7,8.2-6.7,10-10.4l1.4-3l0.1-34.7l0.2-34.6l1.1,0.4c0.6,0.1,2.7,0.4,4.6,0.6c2.8,0.2,4.1,0.1,6.7-0.9c6.3-2.1,10.9-6.1,13.7-12l1.5-3.2v-26c0-24-0.1-26.2-0.9-28.7c-4.4-13.1-16.7-24.2-29.4-26.5l-3.3-0.6l1.7-3c2.5-4.6,3.8-8.9,4.1-14.3C203.6,25.1,182,6.1,161.2,10.7z M172,24.4c10.7,2,17.3,11.1,16.3,22.5c-0.5,5.9-3.2,10.4-9.2,15.4c-2.3,1.9-3.5,3.3-4.6,5.7c-2,4.1-2.9,4.9-6.2,5.2c-3.9,0.3-5.4-0.7-7.3-4.6c-1.3-2.6-2-3.5-4.3-5c-7.4-4.9-9.8-9.5-9.7-18.7c0.1-5.4,1-8.9,3.5-12.6C154.8,25.9,163.4,22.8,172,24.4z"/><path fill="#000000" d="M42,106.8c-5.7,1-11.4,5.5-14.3,11.4l-1.9,3.8v16v16l1.6,3.4c2,4.1,5.9,8.1,10,10.2l2.9,1.4l16.4,0.1l16.3,0.1V181v11.7h-12c-13.3,0-14.5,0.2-16.5,3c-0.9,1.1-1.2,2.3-1.2,4c0,2.7,1,4.5,3.3,5.9c1.5,0.9,2.6,1,14,1h12.4L73,217c-0.1,9-0.3,10.3-1,11.1c-0.8,0.8-2.2,0.9-12.5,1.1c-12.8,0.3-13.5,0.5-15.1,3.6c-1.8,3.4-0.5,7.6,2.8,9.5c1.6,0.8,2.7,0.9,13.5,0.8l11.7-0.1l3-1.4c3.8-1.9,8.1-6.2,10-10l1.4-3l0.1-29.6l0.1-29.5l8.3-0.2c8.1-0.1,8.4-0.2,11.6-1.7c6-2.8,10.3-8.4,11.5-14.9c0.4-1.9,0.5-7.9,0.4-16.5c-0.3-15.2-0.5-16.5-4.3-21.5c-2-2.7-6.9-6.3-10-7.3C102.5,106.5,45.9,106.1,42,106.8z M103.5,121.8c0.9,0.9,1,1.6,1,16.1c0,12.3-0.1,15.3-0.7,16.1c-0.7,0.9-1.6,0.9-31.5,0.9c-28.8,0-30.8-0.1-31.6-0.9c-0.8-0.8-0.9-2.1-0.9-16.1v-15.3l1.2-0.9c1.1-0.9,2.3-0.9,31.3-0.9C101.9,120.8,102.5,120.8,103.5,121.8z"/></g></g></g>
</svg>