<!--?xml version="1.0" encoding="utf-8"?-->
<!-- Svg Vector Icons : http://www.onlinewebfonts.com/icon -->

<svg version="1.1" xmlns="http://www.w3.org/2000/svg" xmlns:xlink="http://www.w3.org/1999/xlink" x="0px" y="0px" viewBox="0 0 256 256" enable-background="new 0 0 256 256" xml:space="preserve">
<metadata> Svg Vector Icons : http://www.onlinewebfonts.com/icon </metadata>
<g><g><g><path fill="#f0f0f0" data-title="Layer 0" xs="0" d="M112.8,10.5c-1.5,0.4-3.7,2-4.9,3.4c-1.9,2.2-2.2,3.4-2.2,8.1v5.5l-21.9,0.3c-21.4,0.3-21.9,0.3-23.5,2.1c-1.4,1.7-1.5,4.7-2,28.7c-0.3,17.5-1.4,39-3.1,61.5c-2.8,37.3-3.4,60.4-1.5,62.7c0.5,0.8,1.8,1.5,2.7,1.7c1.5,0.3,1.7,0.9,1.7,6.3c0,5.3-0.2,6-1.7,6.3c-3.8,0.8-3.9,1-3.9,24.3v22.2l2.1,1.3c1.7,1.2,9.1,1.3,61.7,1.1c58-0.3,59.8-0.3,61-1.9c0.9-1.4,1.2-5.9,1.2-22.8c0-22.1-0.3-23.5-3.9-24.2c-1.5-0.3-1.7-1-2-6.5c-0.3-5.7-0.1-6.2,1.5-6.2c3,0,4.4-2.3,4.4-7.4v-4.6h6.1c6.5,0,9.8-1.3,12-4.6c0.9-1.5,1.3-7.4,1.5-29.6l0.3-27.8l2.6-2.3c5.2-5,2.1-13.7-4.8-13.7c-4,0-6.1,1.2-7.8,4.4c-1.7,3.4-0.9,7,2.3,9.7l2.5,2.1v27v27l-2.2,1.7c-1.7,1.4-3.5,1.8-7.3,1.8h-5.1v-5c0-2.7-1.4-23.7-3-46.5c-2.2-30.7-3-47-3-62.7c0-11.6-0.3-21.8-0.5-22.5c-1.3-3.3-4.5-3.9-25.2-3.9h-19.7v-3.9C127.1,14,120.8,8.2,112.8,10.5z M119.7,16.5c1.9,1.5,2.2,2.4,2.2,6.4v4.6h-6h-6v-4.3c0-3.5,0.4-4.8,2.1-6.4C114.6,14.3,116.7,14.2,119.7,16.5z M167.8,34.6c0.3,1.1,0.3,10.6,0.3,21.3l-0.3,19.3l-52.5,0.3l-52.5,0.2V55.5c0-11.1,0.3-20.7,0.5-21.4c0.5-1.2,5.9-1.4,52.3-1.4h51.8L167.8,34.6z M168.2,82.1c0,0.9,1.2,17.3,2.6,36.7c1.5,19.3,2.6,35.7,2.6,36.2c0,0.9-12.2,1.1-57.9,1.1H57.6v-2c0-1,1.2-17.9,2.6-37.5c1.5-19.5,2.6-35.7,2.6-35.7c0-0.2,23.7-0.3,52.7-0.3C165.1,80.7,168.2,80.8,168.2,82.1z M197.7,100c1.6,1.5,1.6,1.7,0.5,3.9c-1.5,2.8-6,1.5-6-1.8c0-1.6,1.6-3.4,3.1-3.4C195.9,98.7,197,99.3,197.7,100z M173.4,170.2v9.8h-57.9H57.6v-9.8v-9.9h57.9h57.9V170.2z M167.8,190.8v6h-52.3H63.2l-0.3-6.3l-0.3-6.2l52.5,0.2l52.5,0.3L167.8,190.8L167.8,190.8z M173.4,221.2V241h-11.5h-11.6l-0.3-12.9l-0.3-12.9l-2.8-2.7l-2.7-2.8h-28.8H86.6l-2.9,3.2l-2.9,3.3v12.4V241H69.2H57.6v-19.7v-19.7h57.9h57.9V221.2z M143.5,215.8c1.4,1.2,1.5,2.8,1.5,13.3V241h-29.6H85.9v-11.7c0-9.7,0.3-12,1.5-13.3c1.3-1.5,3.3-1.5,27.9-1.5C138.9,214.4,142.2,214.6,143.5,215.8z"/><path fill="#f0f0f0" data-title="Layer 1" xs="1" d="M67.8,87.3c-1,1.2-1.6,5.3-2.3,16.2c-1.2,18.9-1.2,19.7,0.4,21.3c1.8,1.8,23.1,2,25.5,0.3c1.4-1,1.7-3.1,2.3-14.8c1-19.7,0.9-21.4-0.6-23c-1-1.1-3.5-1.4-12.7-1.4C70.7,85.8,68.9,86,67.8,87.3z M89.4,96.8c0,3.3-0.3,10-0.6,15l-0.5,9.2h-9.4h-9.4l0.6-12.3c0.3-6.7,0.9-13.5,1.1-15l0.4-2.7h8.9h8.9L89.4,96.8L89.4,96.8z"/><path fill="#f0f0f0" data-title="Layer 2" xs="2" d="M101.2,87.3c-2,2.2-3.5,34.1-1.8,36.9c1.1,1.9,1.5,2,14.8,2c16.4,0,16.3,0,16.2-8.4c-0.1-13.4-1.4-29.2-2.5-30.5c-0.9-1.1-3.3-1.4-13.3-1.4C104.1,85.8,102.3,86,101.2,87.3z M124.6,95.4c0,2.5,0.3,9.3,0.6,15.1l0.6,10.5h-11.4H103l0.5-9.7c0.3-5.2,0.7-12,0.9-15L105,91h9.8h9.8L124.6,95.4z"/><path fill="#f0f0f0" data-title="Layer 3" xs="3" d="M136.1,87c-1.5,1-1.5,2.1-0.8,18.9c0.8,15.9,1,17.9,2.5,18.9c1.2,0.9,4.8,1.2,13.7,1.2c10.7,0,12.3-0.2,13.6-1.5c1.3-1.5,1.3-3,0.3-18.9c-0.8-11.3-1.5-17.7-2.2-18.5C161.6,85.3,138.6,85.2,136.1,87z M159.9,98c0.3,3.9,0.8,10.7,1.1,15l0.6,8h-10.4H141l-0.5-11.8c-0.3-6.4-0.7-13.2-0.9-15l-0.3-3.2h10.1h10L159.9,98z"/><path fill="#f0f0f0" data-title="Layer 4" xs="4" d="M66.2,133.8c-1.5,1.5-1.7,2.7-1.5,8c0.3,5.6,0.4,6.3,2.4,7.2c2.7,1.4,23.4,1.5,25.8,0.3c1.4-0.8,1.6-1.9,1.6-7.3c0-9.6-0.4-9.9-15-9.9C69,132.1,67.8,132.3,66.2,133.8z M89.4,141.1v3.9h-9.9h-9.9v-3.9v-3.9h9.9h9.9V141.1z"/><path fill="#f0f0f0" data-title="Layer 5" xs="5" d="M100.2,133.7c-1.1,1.3-1.4,2.9-1.2,7.9c0.3,8.4,0.7,8.6,16.8,8.3c14.6-0.3,14.7-0.4,14.7-9c0-8.5-0.6-8.8-16.1-8.8C103,132.1,101.4,132.3,100.2,133.7z M125.4,141.1v3.9h-10.7h-10.7v-3.9v-3.9h10.7h10.7V141.1z"/><path fill="#f0f0f0" data-title="Layer 6" xs="6" d="M136.5,133.8c-1.4,1.4-1.7,2.8-1.7,7.1c0,8.6,0.2,8.7,14.7,9c16.1,0.3,16.5,0.1,16.8-8.3c0.3-9.4,0.3-9.5-15.4-9.5C139.3,132.1,138,132.3,136.5,133.8z M161.4,141.1v3.9h-10.7h-10.7v-3.9v-3.9h10.7h10.7V141.1z"/></g></g></g>
</svg>